<svg xmlns="http://www.w3.org/2000/svg" version="1.1" xmlns:xlink="http://www.w3.org/1999/xlink" xmlns:svgjs="http://svgjs.dev/svgjs" width="2000" height="500" preserveAspectRatio="none" viewBox="0 0 2000 500"><g mask="url(&quot;#SvgjsMask1010&quot;)" fill="none"><path d="M-110.59 410.96L-110.59 410.96" stroke="rgba(255, 255, 255, 0.3)" stroke-width="0.4"></path><path d="M-110.59 410.96L-65.36 530.78" stroke="rgba(255, 255, 255, 0.3)" stroke-width="0.4"></path><path d="M-110.59 410.96L58 359.15" stroke="rgba(255, 255, 255, 0.3)" stroke-width="0.4"></path><path d="M-110.59 410.96L55.61 538.31" stroke="rgba(255, 255, 255, 0.3)" stroke-width="0.4"></path><path d="M-65.36 530.78L-65.36 530.78" stroke="rgba(255, 255, 255, 0.3)" stroke-width="0.4"></path><path d="M-65.36 530.78L55.61 538.31" stroke="rgba(255, 255, 255, 0.3)" stroke-width="0.4"></path><path d="M-65.36 530.78L-77.5 694.18" stroke="rgba(255, 255, 255, 0.3)" stroke-width="0.4"></path><path d="M-77.5 694.18L-77.5 694.18" stroke="rgba(255, 255, 255, 0.3)" stroke-width="0.4"></path><path d="M-77.5 694.18L105.38 681.27" stroke="rgba(255, 255, 255, 0.3)" stroke-width="0.4"></path><path d="M58 359.15L58 359.15" stroke="rgba(255, 255, 255, 0.3)" stroke-width="0.4"></path><path d="M58 359.15L188.5 340.8" stroke="rgba(255, 255, 255, 0.3)" stroke-width="0.4"></path><path d="M58 359.15L55.61 538.31" stroke="rgba(255, 255, 255, 0.3)" stroke-width="0.4"></path><path d="M58 359.15L-65.36 530.78" stroke="rgba(255, 255, 255, 0.3)" stroke-width="0.4"></path><path d="M55.61 538.31L55.61 538.31" stroke="rgba(255, 255, 255, 0.3)" stroke-width="0.4"></path><path d="M55.61 538.31L105.38 681.27" stroke="rgba(255, 255, 255, 0.3)" stroke-width="0.4"></path><path d="M55.61 538.31L214.44 515.6" stroke="rgba(255, 255, 255, 0.3)" stroke-width="0.4"></path><path d="M105.38 681.27L105.38 681.27" stroke="rgba(255, 255, 255, 0.3)" stroke-width="0.4"></path><path d="M105.38 681.27L222.98 678.39" stroke="rgba(255, 255, 255, 0.3)" stroke-width="0.4"></path><path d="M188.5 340.8L188.5 340.8" stroke="rgba(255, 255, 255, 0.3)" stroke-width="0.4"></path><path d="M188.5 340.8L214.44 515.6" stroke="rgba(255, 255, 255, 0.3)" stroke-width="0.4"></path><path d="M188.5 340.8L410.02 390.07" stroke="rgba(255, 255, 255, 0.3)" stroke-width="0.4"></path><path d="M188.5 340.8L55.61 538.31" stroke="rgba(255, 255, 255, 0.3)" stroke-width="0.4"></path><path d="M188.5 340.8L393.48 492.22" stroke="rgba(255, 255, 255, 0.3)" stroke-width="0.4"></path><path d="M188.5 340.8L-110.59 410.96" stroke="rgba(255, 255, 255, 0.3)" stroke-width="0.4"></path><path d="M214.44 515.6L214.44 515.6" stroke="rgba(255, 255, 255, 0.3)" stroke-width="0.4"></path><path d="M214.44 515.6L222.98 678.39" stroke="rgba(255, 255, 255, 0.3)" stroke-width="0.4"></path><path d="M214.44 515.6L393.48 492.22" stroke="rgba(255, 255, 255, 0.3)" stroke-width="0.4"></path><path d="M214.44 515.6L105.38 681.27" stroke="rgba(255, 255, 255, 0.3)" stroke-width="0.4"></path><path d="M214.44 515.6L58 359.15" stroke="rgba(255, 255, 255, 0.3)" stroke-width="0.4"></path><path d="M222.98 678.39L222.98 678.39" stroke="rgba(255, 255, 255, 0.3)" stroke-width="0.4"></path><path d="M410.02 390.07L410.02 390.07" stroke="rgba(255, 255, 255, 0.3)" stroke-width="0.4"></path><path d="M410.02 390.07L393.48 492.22" stroke="rgba(255, 255, 255, 0.3)" stroke-width="0.4"></path><path d="M410.02 390.07L536.99 369.55" stroke="rgba(255, 255, 255, 0.3)" stroke-width="0.4"></path><path d="M410.02 390.07L559.08 493.27" stroke="rgba(255, 255, 255, 0.3)" stroke-width="0.4"></path><path d="M410.02 390.07L214.44 515.6" stroke="rgba(255, 255, 255, 0.3)" stroke-width="0.4"></path><path d="M410.02 390.07L398.92 646.28" stroke="rgba(255, 255, 255, 0.3)" stroke-width="0.4"></path><path d="M393.48 492.22L393.48 492.22" stroke="rgba(255, 255, 255, 0.3)" stroke-width="0.4"></path><path d="M393.48 492.22L398.92 646.28" stroke="rgba(255, 255, 255, 0.3)" stroke-width="0.4"></path><path d="M398.92 646.28L398.92 646.28" stroke="rgba(255, 255, 255, 0.3)" stroke-width="0.4"></path><path d="M536.99 369.55L536.99 369.55" stroke="rgba(255, 255, 255, 0.3)" stroke-width="0.4"></path><path d="M536.99 369.55L559.08 493.27" stroke="rgba(255, 255, 255, 0.3)" stroke-width="0.4"></path><path d="M536.99 369.55L393.48 492.22" stroke="rgba(255, 255, 255, 0.3)" stroke-width="0.4"></path><path d="M536.99 369.55L703.83 523.15" stroke="rgba(255, 255, 255, 0.3)" stroke-width="0.4"></path><path d="M536.99 369.55L837.76 383.34" stroke="rgba(255, 255, 255, 0.3)" stroke-width="0.4"></path><path d="M536.99 369.55L398.92 646.28" stroke="rgba(255, 255, 255, 0.3)" stroke-width="0.4"></path><path d="M559.08 493.27L559.08 493.27" stroke="rgba(255, 255, 255, 0.3)" stroke-width="0.4"></path><path d="M559.08 493.27L703.83 523.15" stroke="rgba(255, 255, 255, 0.3)" stroke-width="0.4"></path><path d="M559.08 493.27L393.48 492.22" stroke="rgba(255, 255, 255, 0.3)" stroke-width="0.4"></path><path d="M559.08 493.27L673.32 672.25" stroke="rgba(255, 255, 255, 0.3)" stroke-width="0.4"></path><path d="M703.83 523.15L703.83 523.15" stroke="rgba(255, 255, 255, 0.3)" stroke-width="0.4"></path><path d="M703.83 523.15L807.89 528.04" stroke="rgba(255, 255, 255, 0.3)" stroke-width="0.4"></path><path d="M703.83 523.15L673.32 672.25" stroke="rgba(255, 255, 255, 0.3)" stroke-width="0.4"></path><path d="M703.83 523.15L837.76 383.34" stroke="rgba(255, 255, 255, 0.3)" stroke-width="0.4"></path><path d="M703.83 523.15L959.79 498.49" stroke="rgba(255, 255, 255, 0.3)" stroke-width="0.4"></path><path d="M673.32 672.25L673.32 672.25" stroke="rgba(255, 255, 255, 0.3)" stroke-width="0.4"></path><path d="M673.32 672.25L807.89 528.04" stroke="rgba(255, 255, 255, 0.3)" stroke-width="0.4"></path><path d="M837.76 383.34L837.76 383.34" stroke="rgba(255, 255, 255, 0.3)" stroke-width="0.4"></path><path d="M837.76 383.34L807.89 528.04" stroke="rgba(255, 255, 255, 0.3)" stroke-width="0.4"></path><path d="M837.76 383.34L992.85 357.24" stroke="rgba(255, 255, 255, 0.3)" stroke-width="0.4"></path><path d="M807.89 528.04L807.89 528.04" stroke="rgba(255, 255, 255, 0.3)" stroke-width="0.4"></path><path d="M807.89 528.04L959.79 498.49" stroke="rgba(255, 255, 255, 0.3)" stroke-width="0.4"></path><path d="M983.17 249.86L983.17 249.86" stroke="rgba(255, 255, 255, 0.3)" stroke-width="0.4"></path><path d="M983.17 249.86L992.85 357.24" stroke="rgba(255, 255, 255, 0.3)" stroke-width="0.4"></path><path d="M983.17 249.86L1107.77 340.83" stroke="rgba(255, 255, 255, 0.3)" stroke-width="0.4"></path><path d="M992.85 357.24L992.85 357.24" stroke="rgba(255, 255, 255, 0.3)" stroke-width="0.4"></path><path d="M992.85 357.24L1107.77 340.83" stroke="rgba(255, 255, 255, 0.3)" stroke-width="0.4"></path><path d="M992.85 357.24L959.79 498.49" stroke="rgba(255, 255, 255, 0.3)" stroke-width="0.4"></path><path d="M959.79 498.49L959.79 498.49" stroke="rgba(255, 255, 255, 0.3)" stroke-width="0.4"></path><path d="M959.79 498.49L837.76 383.34" stroke="rgba(255, 255, 255, 0.3)" stroke-width="0.4"></path><path d="M959.79 498.49L959.82 671.7" stroke="rgba(255, 255, 255, 0.3)" stroke-width="0.4"></path><path d="M959.79 498.49L1141.96 561.94" stroke="rgba(255, 255, 255, 0.3)" stroke-width="0.4"></path><path d="M959.82 671.7L959.82 671.7" stroke="rgba(255, 255, 255, 0.3)" stroke-width="0.4"></path><path d="M959.82 671.7L1101.3 710.32" stroke="rgba(255, 255, 255, 0.3)" stroke-width="0.4"></path><path d="M959.82 671.7L807.89 528.04" stroke="rgba(255, 255, 255, 0.3)" stroke-width="0.4"></path><path d="M959.82 671.7L1141.96 561.94" stroke="rgba(255, 255, 255, 0.3)" stroke-width="0.4"></path><path d="M1146.26 187.61L1146.26 187.61" stroke="rgba(255, 255, 255, 0.3)" stroke-width="0.4"></path><path d="M1146.26 187.61L1265 256.51" stroke="rgba(255, 255, 255, 0.3)" stroke-width="0.4"></path><path d="M1146.26 187.61L1242.18 78.91" stroke="rgba(255, 255, 255, 0.3)" stroke-width="0.4"></path><path d="M1107.77 340.83L1107.77 340.83" stroke="rgba(255, 255, 255, 0.3)" stroke-width="0.4"></path><path d="M1107.77 340.83L1146.26 187.61" stroke="rgba(255, 255, 255, 0.3)" stroke-width="0.4"></path><path d="M1107.77 340.83L1265 256.51" stroke="rgba(255, 255, 255, 0.3)" stroke-width="0.4"></path><path d="M1107.77 340.83L1295.38 352.91" stroke="rgba(255, 255, 255, 0.3)" stroke-width="0.4"></path><path d="M1141.96 561.94L1141.96 561.94" stroke="rgba(255, 255, 255, 0.3)" stroke-width="0.4"></path><path d="M1141.96 561.94L1239.84 651.98" stroke="rgba(255, 255, 255, 0.3)" stroke-width="0.4"></path><path d="M1141.96 561.94L1101.3 710.32" stroke="rgba(255, 255, 255, 0.3)" stroke-width="0.4"></path><path d="M1141.96 561.94L1294.74 508.67" stroke="rgba(255, 255, 255, 0.3)" stroke-width="0.4"></path><path d="M1101.3 710.32L1101.3 710.32" stroke="rgba(255, 255, 255, 0.3)" stroke-width="0.4"></path><path d="M1101.3 710.32L1239.84 651.98" stroke="rgba(255, 255, 255, 0.3)" stroke-width="0.4"></path><path d="M1101.3 710.32L959.79 498.49" stroke="rgba(255, 255, 255, 0.3)" stroke-width="0.4"></path><path d="M1101.3 710.32L1294.74 508.67" stroke="rgba(255, 255, 255, 0.3)" stroke-width="0.4"></path><path d="M1289.59 -75.97L1289.59 -75.97" stroke="rgba(255, 255, 255, 0.3)" stroke-width="0.4"></path><path d="M1289.59 -75.97L1411.21 -105.8" stroke="rgba(255, 255, 255, 0.3)" stroke-width="0.4"></path><path d="M1289.59 -75.97L1242.18 78.91" stroke="rgba(255, 255, 255, 0.3)" stroke-width="0.4"></path><path d="M1289.59 -75.97L1426.95 85.62" stroke="rgba(255, 255, 255, 0.3)" stroke-width="0.4"></path><path d="M1242.18 78.91L1242.18 78.91" stroke="rgba(255, 255, 255, 0.3)" stroke-width="0.4"></path><path d="M1242.18 78.91L1265 256.51" stroke="rgba(255, 255, 255, 0.3)" stroke-width="0.4"></path><path d="M1265 256.51L1265 256.51" stroke="rgba(255, 255, 255, 0.3)" stroke-width="0.4"></path><path d="M1265 256.51L1295.38 352.91" stroke="rgba(255, 255, 255, 0.3)" stroke-width="0.4"></path><path d="M1265 256.51L1426.14 252.04" stroke="rgba(255, 255, 255, 0.3)" stroke-width="0.4"></path><path d="M1265 256.51L1442.65 406.63" stroke="rgba(255, 255, 255, 0.3)" stroke-width="0.4"></path><path d="M1295.38 352.91L1295.38 352.91" stroke="rgba(255, 255, 255, 0.3)" stroke-width="0.4"></path><path d="M1295.38 352.91L1294.74 508.67" stroke="rgba(255, 255, 255, 0.3)" stroke-width="0.4"></path><path d="M1295.38 352.91L1442.65 406.63" stroke="rgba(255, 255, 255, 0.3)" stroke-width="0.4"></path><path d="M1295.38 352.91L1426.14 252.04" stroke="rgba(255, 255, 255, 0.3)" stroke-width="0.4"></path><path d="M1295.38 352.91L1398.12 538.53" stroke="rgba(255, 255, 255, 0.3)" stroke-width="0.4"></path><path d="M1294.74 508.67L1294.74 508.67" stroke="rgba(255, 255, 255, 0.3)" stroke-width="0.4"></path><path d="M1294.74 508.67L1398.12 538.53" stroke="rgba(255, 255, 255, 0.3)" stroke-width="0.4"></path><path d="M1294.74 508.67L1239.84 651.98" stroke="rgba(255, 255, 255, 0.3)" stroke-width="0.4"></path><path d="M1294.74 508.67L1442.65 406.63" stroke="rgba(255, 255, 255, 0.3)" stroke-width="0.4"></path><path d="M1294.74 508.67L1422.68 645.69" stroke="rgba(255, 255, 255, 0.3)" stroke-width="0.4"></path><path d="M1239.84 651.98L1239.84 651.98" stroke="rgba(255, 255, 255, 0.3)" stroke-width="0.4"></path><path d="M1239.84 651.98L1422.68 645.69" stroke="rgba(255, 255, 255, 0.3)" stroke-width="0.4"></path><path d="M1239.84 651.98L1398.12 538.53" stroke="rgba(255, 255, 255, 0.3)" stroke-width="0.4"></path><path d="M1411.21 -105.8L1411.21 -105.8" stroke="rgba(255, 255, 255, 0.3)" stroke-width="0.4"></path><path d="M1411.21 -105.8L1595.48 -91.22" stroke="rgba(255, 255, 255, 0.3)" stroke-width="0.4"></path><path d="M1411.21 -105.8L1426.95 85.62" stroke="rgba(255, 255, 255, 0.3)" stroke-width="0.4"></path><path d="M1426.95 85.62L1426.95 85.62" stroke="rgba(255, 255, 255, 0.3)" stroke-width="0.4"></path><path d="M1426.95 85.62L1567.32 44.63" stroke="rgba(255, 255, 255, 0.3)" stroke-width="0.4"></path><path d="M1426.95 85.62L1426.14 252.04" stroke="rgba(255, 255, 255, 0.3)" stroke-width="0.4"></path><path d="M1426.95 85.62L1242.18 78.91" stroke="rgba(255, 255, 255, 0.3)" stroke-width="0.4"></path><path d="M1426.14 252.04L1426.14 252.04" stroke="rgba(255, 255, 255, 0.3)" stroke-width="0.4"></path><path d="M1426.14 252.04L1442.65 406.63" stroke="rgba(255, 255, 255, 0.3)" stroke-width="0.4"></path><path d="M1442.65 406.63L1442.65 406.63" stroke="rgba(255, 255, 255, 0.3)" stroke-width="0.4"></path><path d="M1442.65 406.63L1398.12 538.53" stroke="rgba(255, 255, 255, 0.3)" stroke-width="0.4"></path><path d="M1442.65 406.63L1587.12 389.83" stroke="rgba(255, 255, 255, 0.3)" stroke-width="0.4"></path><path d="M1398.12 538.53L1398.12 538.53" stroke="rgba(255, 255, 255, 0.3)" stroke-width="0.4"></path><path d="M1398.12 538.53L1422.68 645.69" stroke="rgba(255, 255, 255, 0.3)" stroke-width="0.4"></path><path d="M1398.12 538.53L1559.54 513.87" stroke="rgba(255, 255, 255, 0.3)" stroke-width="0.4"></path><path d="M1422.68 645.69L1422.68 645.69" stroke="rgba(255, 255, 255, 0.3)" stroke-width="0.4"></path><path d="M1422.68 645.69L1610.25 672.42" stroke="rgba(255, 255, 255, 0.3)" stroke-width="0.4"></path><path d="M1422.68 645.69L1559.54 513.87" stroke="rgba(255, 255, 255, 0.3)" stroke-width="0.4"></path><path d="M1595.48 -91.22L1595.48 -91.22" stroke="rgba(255, 255, 255, 0.3)" stroke-width="0.4"></path><path d="M1595.48 -91.22L1567.32 44.63" stroke="rgba(255, 255, 255, 0.3)" stroke-width="0.4"></path><path d="M1595.48 -91.22L1756.37 -69.11" stroke="rgba(255, 255, 255, 0.3)" stroke-width="0.4"></path><path d="M1595.48 -91.22L1426.95 85.62" stroke="rgba(255, 255, 255, 0.3)" stroke-width="0.4"></path><path d="M1595.48 -91.22L1744.39 108.87" stroke="rgba(255, 255, 255, 0.3)" stroke-width="0.4"></path><path d="M1595.48 -91.22L1847.37 -107.14" stroke="rgba(255, 255, 255, 0.3)" stroke-width="0.4"></path><path d="M1567.32 44.63L1567.32 44.63" stroke="rgba(255, 255, 255, 0.3)" stroke-width="0.4"></path><path d="M1567.32 44.63L1744.39 108.87" stroke="rgba(255, 255, 255, 0.3)" stroke-width="0.4"></path><path d="M1567.32 44.63L1610.66 240.48" stroke="rgba(255, 255, 255, 0.3)" stroke-width="0.4"></path><path d="M1567.32 44.63L1411.21 -105.8" stroke="rgba(255, 255, 255, 0.3)" stroke-width="0.4"></path><path d="M1610.66 240.48L1610.66 240.48" stroke="rgba(255, 255, 255, 0.3)" stroke-width="0.4"></path><path d="M1610.66 240.48L1752.57 260.72" stroke="rgba(255, 255, 255, 0.3)" stroke-width="0.4"></path><path d="M1610.66 240.48L1587.12 389.83" stroke="rgba(255, 255, 255, 0.3)" stroke-width="0.4"></path><path d="M1610.66 240.48L1696.58 381.38" stroke="rgba(255, 255, 255, 0.3)" stroke-width="0.4"></path><path d="M1587.12 389.83L1587.12 389.83" stroke="rgba(255, 255, 255, 0.3)" stroke-width="0.4"></path><path d="M1587.12 389.83L1696.58 381.38" stroke="rgba(255, 255, 255, 0.3)" stroke-width="0.4"></path><path d="M1587.12 389.83L1559.54 513.87" stroke="rgba(255, 255, 255, 0.3)" stroke-width="0.4"></path><path d="M1587.12 389.83L1733.56 506.66" stroke="rgba(255, 255, 255, 0.3)" stroke-width="0.4"></path><path d="M1559.54 513.87L1559.54 513.87" stroke="rgba(255, 255, 255, 0.3)" stroke-width="0.4"></path><path d="M1559.54 513.87L1442.65 406.63" stroke="rgba(255, 255, 255, 0.3)" stroke-width="0.4"></path><path d="M1610.25 672.42L1610.25 672.42" stroke="rgba(255, 255, 255, 0.3)" stroke-width="0.4"></path><path d="M1610.25 672.42L1721.64 652.77" stroke="rgba(255, 255, 255, 0.3)" stroke-width="0.4"></path><path d="M1610.25 672.42L1559.54 513.87" stroke="rgba(255, 255, 255, 0.3)" stroke-width="0.4"></path><path d="M1610.25 672.42L1733.56 506.66" stroke="rgba(255, 255, 255, 0.3)" stroke-width="0.4"></path><path d="M1610.25 672.42L1398.12 538.53" stroke="rgba(255, 255, 255, 0.3)" stroke-width="0.4"></path><path d="M1610.25 672.42L1587.12 389.83" stroke="rgba(255, 255, 255, 0.3)" stroke-width="0.4"></path><path d="M1756.37 -69.11L1756.37 -69.11" stroke="rgba(255, 255, 255, 0.3)" stroke-width="0.4"></path><path d="M1756.37 -69.11L1847.37 -107.14" stroke="rgba(255, 255, 255, 0.3)" stroke-width="0.4"></path><path d="M1744.39 108.87L1744.39 108.87" stroke="rgba(255, 255, 255, 0.3)" stroke-width="0.4"></path><path d="M1744.39 108.87L1841.44 40.78" stroke="rgba(255, 255, 255, 0.3)" stroke-width="0.4"></path><path d="M1744.39 108.87L1752.57 260.72" stroke="rgba(255, 255, 255, 0.3)" stroke-width="0.4"></path><path d="M1752.57 260.72L1752.57 260.72" stroke="rgba(255, 255, 255, 0.3)" stroke-width="0.4"></path><path d="M1752.57 260.72L1868.98 260.86" stroke="rgba(255, 255, 255, 0.3)" stroke-width="0.4"></path><path d="M1752.57 260.72L1696.58 381.38" stroke="rgba(255, 255, 255, 0.3)" stroke-width="0.4"></path><path d="M1696.58 381.38L1696.58 381.38" stroke="rgba(255, 255, 255, 0.3)" stroke-width="0.4"></path><path d="M1696.58 381.38L1733.56 506.66" stroke="rgba(255, 255, 255, 0.3)" stroke-width="0.4"></path><path d="M1733.56 506.66L1733.56 506.66" stroke="rgba(255, 255, 255, 0.3)" stroke-width="0.4"></path><path d="M1733.56 506.66L1721.64 652.77" stroke="rgba(255, 255, 255, 0.3)" stroke-width="0.4"></path><path d="M1733.56 506.66L1876.95 548.8" stroke="rgba(255, 255, 255, 0.3)" stroke-width="0.4"></path><path d="M1733.56 506.66L1559.54 513.87" stroke="rgba(255, 255, 255, 0.3)" stroke-width="0.4"></path><path d="M1721.64 652.77L1721.64 652.77" stroke="rgba(255, 255, 255, 0.3)" stroke-width="0.4"></path><path d="M1721.64 652.77L1876.95 548.8" stroke="rgba(255, 255, 255, 0.3)" stroke-width="0.4"></path><path d="M1721.64 652.77L1559.54 513.87" stroke="rgba(255, 255, 255, 0.3)" stroke-width="0.4"></path><path d="M1847.37 -107.14L1847.37 -107.14" stroke="rgba(255, 255, 255, 0.3)" stroke-width="0.4"></path><path d="M1847.37 -107.14L1841.44 40.78" stroke="rgba(255, 255, 255, 0.3)" stroke-width="0.4"></path><path d="M1847.37 -107.14L2010.89 -98.51" stroke="rgba(255, 255, 255, 0.3)" stroke-width="0.4"></path><path d="M1847.37 -107.14L1744.39 108.87" stroke="rgba(255, 255, 255, 0.3)" stroke-width="0.4"></path><path d="M1841.44 40.78L1841.44 40.78" stroke="rgba(255, 255, 255, 0.3)" stroke-width="0.4"></path><path d="M1841.44 40.78L1756.37 -69.11" stroke="rgba(255, 255, 255, 0.3)" stroke-width="0.4"></path><path d="M1841.44 40.78L2029.02 63.53" stroke="rgba(255, 255, 255, 0.3)" stroke-width="0.4"></path><path d="M1868.98 260.86L1868.98 260.86" stroke="rgba(255, 255, 255, 0.3)" stroke-width="0.4"></path><path d="M1868.98 260.86L1885.92 384.25" stroke="rgba(255, 255, 255, 0.3)" stroke-width="0.4"></path><path d="M1868.98 260.86L2044.29 189.42" stroke="rgba(255, 255, 255, 0.3)" stroke-width="0.4"></path><path d="M1885.92 384.25L1885.92 384.25" stroke="rgba(255, 255, 255, 0.3)" stroke-width="0.4"></path><path d="M1885.92 384.25L2047.67 388.13" stroke="rgba(255, 255, 255, 0.3)" stroke-width="0.4"></path><path d="M1885.92 384.25L1876.95 548.8" stroke="rgba(255, 255, 255, 0.3)" stroke-width="0.4"></path><path d="M1885.92 384.25L1752.57 260.72" stroke="rgba(255, 255, 255, 0.3)" stroke-width="0.4"></path><path d="M1885.92 384.25L1696.58 381.38" stroke="rgba(255, 255, 255, 0.3)" stroke-width="0.4"></path><path d="M1885.92 384.25L1733.56 506.66" stroke="rgba(255, 255, 255, 0.3)" stroke-width="0.4"></path><path d="M1876.95 548.8L1876.95 548.8" stroke="rgba(255, 255, 255, 0.3)" stroke-width="0.4"></path><path d="M1876.95 548.8L2035.95 530.36" stroke="rgba(255, 255, 255, 0.3)" stroke-width="0.4"></path><path d="M2010.89 -98.51L2010.89 -98.51" stroke="rgba(255, 255, 255, 0.3)" stroke-width="0.4"></path><path d="M2010.89 -98.51L2153.79 -49.88" stroke="rgba(255, 255, 255, 0.3)" stroke-width="0.4"></path><path d="M2010.89 -98.51L2029.02 63.53" stroke="rgba(255, 255, 255, 0.3)" stroke-width="0.4"></path><path d="M2010.89 -98.51L1841.44 40.78" stroke="rgba(255, 255, 255, 0.3)" stroke-width="0.4"></path><path d="M2010.89 -98.51L1756.37 -69.11" stroke="rgba(255, 255, 255, 0.3)" stroke-width="0.4"></path><path d="M2029.02 63.53L2029.02 63.53" stroke="rgba(255, 255, 255, 0.3)" stroke-width="0.4"></path><path d="M2029.02 63.53L2044.29 189.42" stroke="rgba(255, 255, 255, 0.3)" stroke-width="0.4"></path><path d="M2029.02 63.53L2153.79 -49.88" stroke="rgba(255, 255, 255, 0.3)" stroke-width="0.4"></path><path d="M2029.02 63.53L2212.4 61.84" stroke="rgba(255, 255, 255, 0.3)" stroke-width="0.4"></path><path d="M2029.02 63.53L2194.11 214.13" stroke="rgba(255, 255, 255, 0.3)" stroke-width="0.4"></path><path d="M2044.29 189.42L2044.29 189.42" stroke="rgba(255, 255, 255, 0.3)" stroke-width="0.4"></path><path d="M2044.29 189.42L2194.11 214.13" stroke="rgba(255, 255, 255, 0.3)" stroke-width="0.4"></path><path d="M2044.29 189.42L2047.67 388.13" stroke="rgba(255, 255, 255, 0.3)" stroke-width="0.4"></path><path d="M2047.67 388.13L2047.67 388.13" stroke="rgba(255, 255, 255, 0.3)" stroke-width="0.4"></path><path d="M2047.67 388.13L2035.95 530.36" stroke="rgba(255, 255, 255, 0.3)" stroke-width="0.4"></path><path d="M2047.67 388.13L2196.98 348.35" stroke="rgba(255, 255, 255, 0.3)" stroke-width="0.4"></path><path d="M2047.67 388.13L2192.13 535.17" stroke="rgba(255, 255, 255, 0.3)" stroke-width="0.4"></path><path d="M2035.95 530.36L2035.95 530.36" stroke="rgba(255, 255, 255, 0.3)" stroke-width="0.4"></path><path d="M2035.95 530.36L2192.13 535.17" stroke="rgba(255, 255, 255, 0.3)" stroke-width="0.4"></path><path d="M2035.95 530.36L2035.32 696.66" stroke="rgba(255, 255, 255, 0.3)" stroke-width="0.4"></path><path d="M2035.32 696.66L2035.32 696.66" stroke="rgba(255, 255, 255, 0.3)" stroke-width="0.4"></path><path d="M2035.32 696.66L2174.81 637.85" stroke="rgba(255, 255, 255, 0.3)" stroke-width="0.4"></path><path d="M2035.32 696.66L1876.95 548.8" stroke="rgba(255, 255, 255, 0.3)" stroke-width="0.4"></path><path d="M2153.79 -49.88L2153.79 -49.88" stroke="rgba(255, 255, 255, 0.3)" stroke-width="0.4"></path><path d="M2153.79 -49.88L2212.4 61.84" stroke="rgba(255, 255, 255, 0.3)" stroke-width="0.4"></path><path d="M2212.4 61.84L2212.4 61.84" stroke="rgba(255, 255, 255, 0.3)" stroke-width="0.4"></path><path d="M2212.4 61.84L2194.11 214.13" stroke="rgba(255, 255, 255, 0.3)" stroke-width="0.4"></path><path d="M2212.4 61.84L2044.29 189.42" stroke="rgba(255, 255, 255, 0.3)" stroke-width="0.4"></path><path d="M2194.11 214.13L2194.11 214.13" stroke="rgba(255, 255, 255, 0.3)" stroke-width="0.4"></path><path d="M2194.11 214.13L2196.98 348.35" stroke="rgba(255, 255, 255, 0.3)" stroke-width="0.4"></path><path d="M2196.98 348.35L2196.98 348.35" stroke="rgba(255, 255, 255, 0.3)" stroke-width="0.4"></path><path d="M2196.98 348.35L2192.13 535.17" stroke="rgba(255, 255, 255, 0.3)" stroke-width="0.4"></path><path d="M2196.98 348.35L2044.29 189.42" stroke="rgba(255, 255, 255, 0.3)" stroke-width="0.4"></path><path d="M2196.98 348.35L2035.95 530.36" stroke="rgba(255, 255, 255, 0.3)" stroke-width="0.4"></path><path d="M2192.13 535.17L2192.13 535.17" stroke="rgba(255, 255, 255, 0.3)" stroke-width="0.4"></path><path d="M2192.13 535.17L2174.81 637.85" stroke="rgba(255, 255, 255, 0.3)" stroke-width="0.4"></path><path d="M2174.81 637.85L2174.81 637.85" stroke="rgba(255, 255, 255, 0.3)" stroke-width="0.4"></path><path d="M2174.81 637.85L2035.95 530.36" stroke="rgba(255, 255, 255, 0.3)" stroke-width="0.4"></path><circle r="5" cx="-110.59" cy="410.96" fill="rgba(255, 255, 255, 0.3)"></circle><circle r="5" cx="-65.36" cy="530.78" fill="rgba(255, 255, 255, 0.3)"></circle><circle r="5" cx="-77.5" cy="694.18" fill="rgba(255, 255, 255, 0.3)"></circle><circle r="5" cx="58" cy="359.15" fill="rgba(255, 255, 255, 0.3)"></circle><circle r="5" cx="55.61" cy="538.31" fill="rgba(255, 255, 255, 0.3)"></circle><circle r="5" cx="105.38" cy="681.27" fill="rgba(255, 255, 255, 0.3)"></circle><circle r="5" cx="188.5" cy="340.8" fill="rgba(255, 255, 255, 0.3)"></circle><circle r="5" cx="214.44" cy="515.6" fill="rgba(255, 255, 255, 0.3)"></circle><circle r="5" cx="222.98" cy="678.39" fill="rgba(255, 255, 255, 0.3)"></circle><circle r="5" cx="410.02" cy="390.07" fill="rgba(255, 255, 255, 0.3)"></circle><circle r="5" cx="393.48" cy="492.22" fill="rgba(255, 255, 255, 0.3)"></circle><circle r="5" cx="398.92" cy="646.28" fill="rgba(255, 255, 255, 0.3)"></circle><circle r="5" cx="536.99" cy="369.55" fill="rgba(255, 255, 255, 0.3)"></circle><circle r="5" cx="559.08" cy="493.27" fill="rgba(255, 255, 255, 0.3)"></circle><circle r="5" cx="703.83" cy="523.15" fill="rgba(255, 255, 255, 0.3)"></circle><circle r="5" cx="673.32" cy="672.25" fill="rgba(255, 255, 255, 0.3)"></circle><circle r="5" cx="837.76" cy="383.34" fill="rgba(255, 255, 255, 0.3)"></circle><circle r="5" cx="807.89" cy="528.04" fill="rgba(255, 255, 255, 0.3)"></circle><circle r="5" cx="983.17" cy="249.86" fill="rgba(255, 255, 255, 0.3)"></circle><circle r="5" cx="992.85" cy="357.24" fill="rgba(255, 255, 255, 0.3)"></circle><circle r="5" cx="959.79" cy="498.49" fill="rgba(255, 255, 255, 0.3)"></circle><circle r="5" cx="959.82" cy="671.7" fill="rgba(255, 255, 255, 0.3)"></circle><circle r="5" cx="1146.26" cy="187.61" fill="rgba(255, 255, 255, 0.3)"></circle><circle r="5" cx="1107.77" cy="340.83" fill="rgba(255, 255, 255, 0.3)"></circle><circle r="5" cx="1141.96" cy="561.94" fill="rgba(255, 255, 255, 0.3)"></circle><circle r="5" cx="1101.3" cy="710.32" fill="rgba(255, 255, 255, 0.3)"></circle><circle r="5" cx="1289.59" cy="-75.97" fill="rgba(255, 255, 255, 0.3)"></circle><circle r="5" cx="1242.18" cy="78.91" fill="rgba(255, 255, 255, 0.3)"></circle><circle r="5" cx="1265" cy="256.51" fill="rgba(255, 255, 255, 0.3)"></circle><circle r="5" cx="1295.38" cy="352.91" fill="rgba(255, 255, 255, 0.3)"></circle><circle r="5" cx="1294.74" cy="508.67" fill="rgba(255, 255, 255, 0.3)"></circle><circle r="5" cx="1239.84" cy="651.98" fill="rgba(255, 255, 255, 0.3)"></circle><circle r="5" cx="1411.21" cy="-105.8" fill="rgba(255, 255, 255, 0.3)"></circle><circle r="5" cx="1426.95" cy="85.62" fill="rgba(255, 255, 255, 0.3)"></circle><circle r="5" cx="1426.14" cy="252.04" fill="rgba(255, 255, 255, 0.3)"></circle><circle r="5" cx="1442.65" cy="406.63" fill="rgba(255, 255, 255, 0.3)"></circle><circle r="5" cx="1398.12" cy="538.53" fill="rgba(255, 255, 255, 0.3)"></circle><circle r="5" cx="1422.68" cy="645.69" fill="rgba(255, 255, 255, 0.3)"></circle><circle r="5" cx="1595.48" cy="-91.22" fill="rgba(255, 255, 255, 0.3)"></circle><circle r="5" cx="1567.32" cy="44.63" fill="rgba(255, 255, 255, 0.3)"></circle><circle r="5" cx="1610.66" cy="240.48" fill="rgba(255, 255, 255, 0.3)"></circle><circle r="5" cx="1587.12" cy="389.83" fill="rgba(255, 255, 255, 0.3)"></circle><circle r="5" cx="1559.54" cy="513.87" fill="rgba(255, 255, 255, 0.3)"></circle><circle r="5" cx="1610.25" cy="672.42" fill="rgba(255, 255, 255, 0.3)"></circle><circle r="5" cx="1756.37" cy="-69.11" fill="rgba(255, 255, 255, 0.3)"></circle><circle r="5" cx="1744.39" cy="108.87" fill="rgba(255, 255, 255, 0.3)"></circle><circle r="5" cx="1752.57" cy="260.72" fill="rgba(255, 255, 255, 0.3)"></circle><circle r="5" cx="1696.58" cy="381.38" fill="rgba(255, 255, 255, 0.3)"></circle><circle r="5" cx="1733.56" cy="506.66" fill="rgba(255, 255, 255, 0.3)"></circle><circle r="5" cx="1721.64" cy="652.77" fill="rgba(255, 255, 255, 0.3)"></circle><circle r="5" cx="1847.37" cy="-107.14" fill="rgba(255, 255, 255, 0.3)"></circle><circle r="5" cx="1841.44" cy="40.78" fill="rgba(255, 255, 255, 0.3)"></circle><circle r="5" cx="1868.98" cy="260.86" fill="rgba(255, 255, 255, 0.3)"></circle><circle r="5" cx="1885.92" cy="384.25" fill="rgba(255, 255, 255, 0.3)"></circle><circle r="5" cx="1876.95" cy="548.8" fill="rgba(255, 255, 255, 0.3)"></circle><circle r="5" cx="2010.89" cy="-98.51" fill="rgba(255, 255, 255, 0.3)"></circle><circle r="5" cx="2029.02" cy="63.53" fill="rgba(255, 255, 255, 0.3)"></circle><circle r="5" cx="2044.29" cy="189.42" fill="rgba(255, 255, 255, 0.3)"></circle><circle r="5" cx="2047.67" cy="388.13" fill="rgba(255, 255, 255, 0.3)"></circle><circle r="5" cx="2035.95" cy="530.36" fill="rgba(255, 255, 255, 0.3)"></circle><circle r="5" cx="2035.32" cy="696.66" fill="rgba(255, 255, 255, 0.3)"></circle><circle r="5" cx="2153.79" cy="-49.88" fill="rgba(255, 255, 255, 0.3)"></circle><circle r="5" cx="2212.4" cy="61.84" fill="rgba(255, 255, 255, 0.3)"></circle><circle r="5" cx="2194.11" cy="214.13" fill="rgba(255, 255, 255, 0.3)"></circle><circle r="5" cx="2196.98" cy="348.35" fill="rgba(255, 255, 255, 0.3)"></circle><circle r="5" cx="2192.13" cy="535.17" fill="rgba(255, 255, 255, 0.3)"></circle><circle r="5" cx="2174.81" cy="637.85" fill="rgba(255, 255, 255, 0.3)"></circle><path d="M-102.42 560.96L-102.42 560.96" stroke="hsla(228.5, 77.2%, 51.5%, 0)" stroke-width="0.4"></path><path d="M-102.42 560.96L90.47 554.28" stroke="hsla(228.5, 77.2%, 51.5%, 0)" stroke-width="0.4"></path><path d="M-102.42 560.96L87.01 673.34" stroke="hsla(228.5, 77.2%, 51.5%, 0)" stroke-width="0.4"></path><path d="M-102.42 560.96L193.95 488.65" stroke="hsla(228.5, 77.2%, 51.5%, 0)" stroke-width="0.4"></path><path d="M-102.42 560.96L193.67 709.18" stroke="hsla(228.5, 77.2%, 51.5%, 0)" stroke-width="0.4"></path><path d="M-102.42 560.96L350.54 517.76" stroke="hsla(228.5, 77.2%, 51.5%, 0)" stroke-width="0.4"></path><path d="M663.6 387.42L663.6 387.42" stroke="hsla(228.5, 77.2%, 51.5%, 0)" stroke-width="0.4"></path><path d="M663.6 387.42L707.64 495.97" stroke="hsla(228.5, 77.2%, 51.5%, 0)" stroke-width="0.4"></path><path d="M663.6 387.42L810.89 391.45" stroke="hsla(228.5, 77.2%, 51.5%, 0)" stroke-width="0.4"></path><path d="M663.6 387.42L822.87 504.91" stroke="hsla(228.5, 77.2%, 51.5%, 0)" stroke-width="0.4"></path><path d="M663.6 387.42L490.07 533.53" stroke="hsla(228.5, 77.2%, 51.5%, 0)" stroke-width="0.4"></path><path d="M663.6 387.42L686.66 642.33" stroke="hsla(228.5, 77.2%, 51.5%, 0)" stroke-width="0.4"></path><path d="M1245.79 339.85L1245.79 339.85" stroke="hsla(228.5, 77.2%, 51.5%, 0)" stroke-width="0.4"></path><path d="M1245.79 339.85L1109.43 357.13" stroke="hsla(228.5, 77.2%, 51.5%, 0)" stroke-width="0.4"></path><path d="M1245.79 339.85L1433.17 361.04" stroke="hsla(228.5, 77.2%, 51.5%, 0)" stroke-width="0.4"></path><path d="M1421.79 555.3L1421.79 555.3" stroke="hsla(228.5, 77.2%, 51.5%, 0)" stroke-width="0.4"></path><path d="M1421.79 555.3L1394.88 696.48" stroke="hsla(228.5, 77.2%, 51.5%, 0)" stroke-width="0.4"></path><path d="M1421.79 555.3L1242.86 544.91" stroke="hsla(228.5, 77.2%, 51.5%, 0)" stroke-width="0.4"></path><path d="M1540.64 348.35L1540.64 348.35" stroke="hsla(228.5, 77.2%, 51.5%, 0)" stroke-width="0.4"></path><path d="M1540.64 348.35L1573.9 247.82" stroke="hsla(228.5, 77.2%, 51.5%, 0)" stroke-width="0.4"></path><path d="M1540.64 348.35L1433.17 361.04" stroke="hsla(228.5, 77.2%, 51.5%, 0)" stroke-width="0.4"></path><path d="M1540.64 348.35L1415.57 188.31" stroke="hsla(228.5, 77.2%, 51.5%, 0)" stroke-width="0.4"></path><path d="M1540.64 348.35L1760.05 352.22" stroke="hsla(228.5, 77.2%, 51.5%, 0)" stroke-width="0.4"></path><path d="M1540.64 348.35L1421.79 555.3" stroke="hsla(228.5, 77.2%, 51.5%, 0)" stroke-width="0.4"></path><path d="M1752.92 219.28L1752.92 219.28" stroke="hsla(228.5, 77.2%, 51.5%, 0)" stroke-width="0.4"></path><path d="M1752.92 219.28L1760.05 352.22" stroke="hsla(228.5, 77.2%, 51.5%, 0)" stroke-width="0.4"></path><path d="M1752.92 219.28L1896.78 232.12" stroke="hsla(228.5, 77.2%, 51.5%, 0)" stroke-width="0.4"></path><path d="M1752.92 219.28L1718.79 75.59" stroke="hsla(228.5, 77.2%, 51.5%, 0)" stroke-width="0.4"></path><path d="M1760.05 352.22L1760.05 352.22" stroke="hsla(228.5, 77.2%, 51.5%, 0)" stroke-width="0.4"></path><path d="M1760.05 352.22L1875.16 370.85" stroke="hsla(228.5, 77.2%, 51.5%, 0)" stroke-width="0.4"></path><path d="M1760.05 352.22L1745.07 524.42" stroke="hsla(228.5, 77.2%, 51.5%, 0)" stroke-width="0.4"></path><path d="M1875.16 370.85L1875.16 370.85" stroke="hsla(228.5, 77.2%, 51.5%, 0)" stroke-width="0.4"></path><path d="M1875.16 370.85L1889.95 493.15" stroke="hsla(228.5, 77.2%, 51.5%, 0)" stroke-width="0.4"></path><path d="M1875.16 370.85L1896.78 232.12" stroke="hsla(228.5, 77.2%, 51.5%, 0)" stroke-width="0.4"></path><path d="M1875.16 370.85L2022.56 341.39" stroke="hsla(228.5, 77.2%, 51.5%, 0)" stroke-width="0.4"></path><path d="M1841.32 640.75L1841.32 640.75" stroke="hsla(228.5, 77.2%, 51.5%, 0)" stroke-width="0.4"></path><path d="M1841.32 640.75L1733.4 647.79" stroke="hsla(228.5, 77.2%, 51.5%, 0)" stroke-width="0.4"></path><path d="M1841.32 640.75L1745.07 524.42" stroke="hsla(228.5, 77.2%, 51.5%, 0)" stroke-width="0.4"></path><path d="M1841.32 640.75L1889.95 493.15" stroke="hsla(228.5, 77.2%, 51.5%, 0)" stroke-width="0.4"></path><path d="M2053.79 226.98L2053.79 226.98" stroke="hsla(228.5, 77.2%, 51.5%, 0)" stroke-width="0.4"></path><path d="M2053.79 226.98L2022.56 341.39" stroke="hsla(228.5, 77.2%, 51.5%, 0)" stroke-width="0.4"></path><path d="M2053.79 226.98L2193.68 190.49" stroke="hsla(228.5, 77.2%, 51.5%, 0)" stroke-width="0.4"></path><path d="M2053.79 226.98L2052.83 75.56" stroke="hsla(228.5, 77.2%, 51.5%, 0)" stroke-width="0.4"></path><path d="M2053.79 226.98L1896.78 232.12" stroke="hsla(228.5, 77.2%, 51.5%, 0)" stroke-width="0.4"></path><path d="M2053.79 226.98L2152.11 359.43" stroke="hsla(228.5, 77.2%, 51.5%, 0)" stroke-width="0.4"></path><path d="M2053.79 226.98L2199.73 83.35" stroke="hsla(228.5, 77.2%, 51.5%, 0)" stroke-width="0.4"></path><path d="M90.47 554.28L90.47 554.28" stroke="hsla(228.5, 77.2%, 51.5%, 0)" stroke-width="0.4"></path><path d="M90.47 554.28L87.01 673.34" stroke="hsla(228.5, 77.2%, 51.5%, 0)" stroke-width="0.4"></path><path d="M90.47 554.28L193.95 488.65" stroke="hsla(228.5, 77.2%, 51.5%, 0)" stroke-width="0.4"></path><path d="M90.47 554.28L193.67 709.18" stroke="hsla(228.5, 77.2%, 51.5%, 0)" stroke-width="0.4"></path><path d="M87.01 673.34L87.01 673.34" stroke="hsla(228.5, 77.2%, 51.5%, 0)" stroke-width="0.4"></path><path d="M87.01 673.34L193.67 709.18" stroke="hsla(228.5, 77.2%, 51.5%, 0)" stroke-width="0.4"></path><path d="M87.01 673.34L193.95 488.65" stroke="hsla(228.5, 77.2%, 51.5%, 0)" stroke-width="0.4"></path><path d="M87.01 673.34L368.18 686.6" stroke="hsla(228.5, 77.2%, 51.5%, 0)" stroke-width="0.4"></path><path d="M193.95 488.65L193.95 488.65" stroke="hsla(228.5, 77.2%, 51.5%, 0)" stroke-width="0.4"></path><path d="M193.95 488.65L350.54 517.76" stroke="hsla(228.5, 77.2%, 51.5%, 0)" stroke-width="0.4"></path><path d="M193.67 709.18L193.67 709.18" stroke="hsla(228.5, 77.2%, 51.5%, 0)" stroke-width="0.4"></path><path d="M193.67 709.18L368.18 686.6" stroke="hsla(228.5, 77.2%, 51.5%, 0)" stroke-width="0.4"></path><path d="M193.67 709.18L193.95 488.65" stroke="hsla(228.5, 77.2%, 51.5%, 0)" stroke-width="0.4"></path><path d="M193.67 709.18L350.54 517.76" stroke="hsla(228.5, 77.2%, 51.5%, 0)" stroke-width="0.4"></path><path d="M350.54 517.76L350.54 517.76" stroke="hsla(228.5, 77.2%, 51.5%, 0)" stroke-width="0.4"></path><path d="M350.54 517.76L490.07 533.53" stroke="hsla(228.5, 77.2%, 51.5%, 0)" stroke-width="0.4"></path><path d="M350.54 517.76L368.18 686.6" stroke="hsla(228.5, 77.2%, 51.5%, 0)" stroke-width="0.4"></path><path d="M350.54 517.76L530.28 691.81" stroke="hsla(228.5, 77.2%, 51.5%, 0)" stroke-width="0.4"></path><path d="M350.54 517.76L90.47 554.28" stroke="hsla(228.5, 77.2%, 51.5%, 0)" stroke-width="0.4"></path><path d="M368.18 686.6L368.18 686.6" stroke="hsla(228.5, 77.2%, 51.5%, 0)" stroke-width="0.4"></path><path d="M368.18 686.6L530.28 691.81" stroke="hsla(228.5, 77.2%, 51.5%, 0)" stroke-width="0.4"></path><path d="M490.07 533.53L490.07 533.53" stroke="hsla(228.5, 77.2%, 51.5%, 0)" stroke-width="0.4"></path><path d="M490.07 533.53L530.28 691.81" stroke="hsla(228.5, 77.2%, 51.5%, 0)" stroke-width="0.4"></path><path d="M530.28 691.81L530.28 691.81" stroke="hsla(228.5, 77.2%, 51.5%, 0)" stroke-width="0.4"></path><path d="M530.28 691.81L686.66 642.33" stroke="hsla(228.5, 77.2%, 51.5%, 0)" stroke-width="0.4"></path><path d="M707.64 495.97L707.64 495.97" stroke="hsla(228.5, 77.2%, 51.5%, 0)" stroke-width="0.4"></path><path d="M707.64 495.97L822.87 504.91" stroke="hsla(228.5, 77.2%, 51.5%, 0)" stroke-width="0.4"></path><path d="M707.64 495.97L810.89 391.45" stroke="hsla(228.5, 77.2%, 51.5%, 0)" stroke-width="0.4"></path><path d="M707.64 495.97L686.66 642.33" stroke="hsla(228.5, 77.2%, 51.5%, 0)" stroke-width="0.4"></path><path d="M707.64 495.97L804.54 690.23" stroke="hsla(228.5, 77.2%, 51.5%, 0)" stroke-width="0.4"></path><path d="M707.64 495.97L490.07 533.53" stroke="hsla(228.5, 77.2%, 51.5%, 0)" stroke-width="0.4"></path><path d="M686.66 642.33L686.66 642.33" stroke="hsla(228.5, 77.2%, 51.5%, 0)" stroke-width="0.4"></path><path d="M686.66 642.33L804.54 690.23" stroke="hsla(228.5, 77.2%, 51.5%, 0)" stroke-width="0.4"></path><path d="M810.89 391.45L810.89 391.45" stroke="hsla(228.5, 77.2%, 51.5%, 0)" stroke-width="0.4"></path><path d="M810.89 391.45L822.87 504.91" stroke="hsla(228.5, 77.2%, 51.5%, 0)" stroke-width="0.4"></path><path d="M810.89 391.45L965.69 390.87" stroke="hsla(228.5, 77.2%, 51.5%, 0)" stroke-width="0.4"></path><path d="M810.89 391.45L951.97 554.12" stroke="hsla(228.5, 77.2%, 51.5%, 0)" stroke-width="0.4"></path><path d="M810.89 391.45L686.66 642.33" stroke="hsla(228.5, 77.2%, 51.5%, 0)" stroke-width="0.4"></path><path d="M822.87 504.91L822.87 504.91" stroke="hsla(228.5, 77.2%, 51.5%, 0)" stroke-width="0.4"></path><path d="M822.87 504.91L951.97 554.12" stroke="hsla(228.5, 77.2%, 51.5%, 0)" stroke-width="0.4"></path><path d="M804.54 690.23L804.54 690.23" stroke="hsla(228.5, 77.2%, 51.5%, 0)" stroke-width="0.4"></path><path d="M804.54 690.23L988.97 703.83" stroke="hsla(228.5, 77.2%, 51.5%, 0)" stroke-width="0.4"></path><path d="M965.69 390.87L965.69 390.87" stroke="hsla(228.5, 77.2%, 51.5%, 0)" stroke-width="0.4"></path><path d="M965.69 390.87L1109.43 357.13" stroke="hsla(228.5, 77.2%, 51.5%, 0)" stroke-width="0.4"></path><path d="M965.69 390.87L951.97 554.12" stroke="hsla(228.5, 77.2%, 51.5%, 0)" stroke-width="0.4"></path><path d="M965.69 390.87L822.87 504.91" stroke="hsla(228.5, 77.2%, 51.5%, 0)" stroke-width="0.4"></path><path d="M965.69 390.87L707.64 495.97" stroke="hsla(228.5, 77.2%, 51.5%, 0)" stroke-width="0.4"></path><path d="M965.69 390.87L1245.79 339.85" stroke="hsla(228.5, 77.2%, 51.5%, 0)" stroke-width="0.4"></path><path d="M951.97 554.12L951.97 554.12" stroke="hsla(228.5, 77.2%, 51.5%, 0)" stroke-width="0.4"></path><path d="M951.97 554.12L988.97 703.83" stroke="hsla(228.5, 77.2%, 51.5%, 0)" stroke-width="0.4"></path><path d="M988.97 703.83L988.97 703.83" stroke="hsla(228.5, 77.2%, 51.5%, 0)" stroke-width="0.4"></path><path d="M988.97 703.83L1142.12 666.24" stroke="hsla(228.5, 77.2%, 51.5%, 0)" stroke-width="0.4"></path><path d="M988.97 703.83L822.87 504.91" stroke="hsla(228.5, 77.2%, 51.5%, 0)" stroke-width="0.4"></path><path d="M988.97 703.83L1274.01 709.93" stroke="hsla(228.5, 77.2%, 51.5%, 0)" stroke-width="0.4"></path><path d="M988.97 703.83L1242.86 544.91" stroke="hsla(228.5, 77.2%, 51.5%, 0)" stroke-width="0.4"></path><path d="M1109.43 357.13L1109.43 357.13" stroke="hsla(228.5, 77.2%, 51.5%, 0)" stroke-width="0.4"></path><path d="M1109.43 357.13L1242.86 544.91" stroke="hsla(228.5, 77.2%, 51.5%, 0)" stroke-width="0.4"></path><path d="M1109.43 357.13L951.97 554.12" stroke="hsla(228.5, 77.2%, 51.5%, 0)" stroke-width="0.4"></path><path d="M1109.43 357.13L810.89 391.45" stroke="hsla(228.5, 77.2%, 51.5%, 0)" stroke-width="0.4"></path><path d="M1142.12 666.24L1142.12 666.24" stroke="hsla(228.5, 77.2%, 51.5%, 0)" stroke-width="0.4"></path><path d="M1142.12 666.24L1274.01 709.93" stroke="hsla(228.5, 77.2%, 51.5%, 0)" stroke-width="0.4"></path><path d="M1142.12 666.24L1242.86 544.91" stroke="hsla(228.5, 77.2%, 51.5%, 0)" stroke-width="0.4"></path><path d="M1142.12 666.24L951.97 554.12" stroke="hsla(228.5, 77.2%, 51.5%, 0)" stroke-width="0.4"></path><path d="M1142.12 666.24L1394.88 696.48" stroke="hsla(228.5, 77.2%, 51.5%, 0)" stroke-width="0.4"></path><path d="M1142.12 666.24L1421.79 555.3" stroke="hsla(228.5, 77.2%, 51.5%, 0)" stroke-width="0.4"></path><path d="M1242.86 544.91L1242.86 544.91" stroke="hsla(228.5, 77.2%, 51.5%, 0)" stroke-width="0.4"></path><path d="M1242.86 544.91L1274.01 709.93" stroke="hsla(228.5, 77.2%, 51.5%, 0)" stroke-width="0.4"></path><path d="M1242.86 544.91L1245.79 339.85" stroke="hsla(228.5, 77.2%, 51.5%, 0)" stroke-width="0.4"></path><path d="M1242.86 544.91L1394.88 696.48" stroke="hsla(228.5, 77.2%, 51.5%, 0)" stroke-width="0.4"></path><path d="M1274.01 709.93L1274.01 709.93" stroke="hsla(228.5, 77.2%, 51.5%, 0)" stroke-width="0.4"></path><path d="M1274.01 709.93L1394.88 696.48" stroke="hsla(228.5, 77.2%, 51.5%, 0)" stroke-width="0.4"></path><path d="M1274.01 709.93L1421.79 555.3" stroke="hsla(228.5, 77.2%, 51.5%, 0)" stroke-width="0.4"></path><path d="M1274.01 709.93L1552.87 685.45" stroke="hsla(228.5, 77.2%, 51.5%, 0)" stroke-width="0.4"></path><path d="M1415.57 188.31L1415.57 188.31" stroke="hsla(228.5, 77.2%, 51.5%, 0)" stroke-width="0.4"></path><path d="M1415.57 188.31L1573.9 247.82" stroke="hsla(228.5, 77.2%, 51.5%, 0)" stroke-width="0.4"></path><path d="M1415.57 188.31L1433.17 361.04" stroke="hsla(228.5, 77.2%, 51.5%, 0)" stroke-width="0.4"></path><path d="M1433.17 361.04L1433.17 361.04" stroke="hsla(228.5, 77.2%, 51.5%, 0)" stroke-width="0.4"></path><path d="M1433.17 361.04L1573.9 247.82" stroke="hsla(228.5, 77.2%, 51.5%, 0)" stroke-width="0.4"></path><path d="M1433.17 361.04L1421.79 555.3" stroke="hsla(228.5, 77.2%, 51.5%, 0)" stroke-width="0.4"></path><path d="M1394.88 696.48L1394.88 696.48" stroke="hsla(228.5, 77.2%, 51.5%, 0)" stroke-width="0.4"></path><path d="M1394.88 696.48L1552.87 685.45" stroke="hsla(228.5, 77.2%, 51.5%, 0)" stroke-width="0.4"></path><path d="M1573.9 247.82L1573.9 247.82" stroke="hsla(228.5, 77.2%, 51.5%, 0)" stroke-width="0.4"></path><path d="M1573.9 247.82L1752.92 219.28" stroke="hsla(228.5, 77.2%, 51.5%, 0)" stroke-width="0.4"></path><path d="M1552.87 685.45L1552.87 685.45" stroke="hsla(228.5, 77.2%, 51.5%, 0)" stroke-width="0.4"></path><path d="M1552.87 685.45L1733.4 647.79" stroke="hsla(228.5, 77.2%, 51.5%, 0)" stroke-width="0.4"></path><path d="M1552.87 685.45L1421.79 555.3" stroke="hsla(228.5, 77.2%, 51.5%, 0)" stroke-width="0.4"></path><path d="M1740.11 -109.45L1740.11 -109.45" stroke="hsla(228.5, 77.2%, 51.5%, 0)" stroke-width="0.4"></path><path d="M1740.11 -109.45L1876.17 -53.14" stroke="hsla(228.5, 77.2%, 51.5%, 0)" stroke-width="0.4"></path><path d="M1740.11 -109.45L1718.79 75.59" stroke="hsla(228.5, 77.2%, 51.5%, 0)" stroke-width="0.4"></path><path d="M1740.11 -109.45L1843.88 61.17" stroke="hsla(228.5, 77.2%, 51.5%, 0)" stroke-width="0.4"></path><path d="M1740.11 -109.45L2005.02 -57.59" stroke="hsla(228.5, 77.2%, 51.5%, 0)" stroke-width="0.4"></path><path d="M1740.11 -109.45L1752.92 219.28" stroke="hsla(228.5, 77.2%, 51.5%, 0)" stroke-width="0.4"></path><path d="M1740.11 -109.45L2052.83 75.56" stroke="hsla(228.5, 77.2%, 51.5%, 0)" stroke-width="0.4"></path><path d="M1718.79 75.59L1718.79 75.59" stroke="hsla(228.5, 77.2%, 51.5%, 0)" stroke-width="0.4"></path><path d="M1718.79 75.59L1843.88 61.17" stroke="hsla(228.5, 77.2%, 51.5%, 0)" stroke-width="0.4"></path><path d="M1745.07 524.42L1745.07 524.42" stroke="hsla(228.5, 77.2%, 51.5%, 0)" stroke-width="0.4"></path><path d="M1745.07 524.42L1733.4 647.79" stroke="hsla(228.5, 77.2%, 51.5%, 0)" stroke-width="0.4"></path><path d="M1745.07 524.42L1889.95 493.15" stroke="hsla(228.5, 77.2%, 51.5%, 0)" stroke-width="0.4"></path><path d="M1745.07 524.42L1875.16 370.85" stroke="hsla(228.5, 77.2%, 51.5%, 0)" stroke-width="0.4"></path><path d="M1733.4 647.79L1733.4 647.79" stroke="hsla(228.5, 77.2%, 51.5%, 0)" stroke-width="0.4"></path><path d="M1733.4 647.79L1889.95 493.15" stroke="hsla(228.5, 77.2%, 51.5%, 0)" stroke-width="0.4"></path><path d="M1733.4 647.79L1760.05 352.22" stroke="hsla(228.5, 77.2%, 51.5%, 0)" stroke-width="0.4"></path><path d="M1733.4 647.79L1875.16 370.85" stroke="hsla(228.5, 77.2%, 51.5%, 0)" stroke-width="0.4"></path><path d="M1876.17 -53.14L1876.17 -53.14" stroke="hsla(228.5, 77.2%, 51.5%, 0)" stroke-width="0.4"></path><path d="M1876.17 -53.14L1843.88 61.17" stroke="hsla(228.5, 77.2%, 51.5%, 0)" stroke-width="0.4"></path><path d="M1876.17 -53.14L2005.02 -57.59" stroke="hsla(228.5, 77.2%, 51.5%, 0)" stroke-width="0.4"></path><path d="M1876.17 -53.14L1718.79 75.59" stroke="hsla(228.5, 77.2%, 51.5%, 0)" stroke-width="0.4"></path><path d="M1876.17 -53.14L2052.83 75.56" stroke="hsla(228.5, 77.2%, 51.5%, 0)" stroke-width="0.4"></path><path d="M1843.88 61.17L1843.88 61.17" stroke="hsla(228.5, 77.2%, 51.5%, 0)" stroke-width="0.4"></path><path d="M1843.88 61.17L1896.78 232.12" stroke="hsla(228.5, 77.2%, 51.5%, 0)" stroke-width="0.4"></path><path d="M1896.78 232.12L1896.78 232.12" stroke="hsla(228.5, 77.2%, 51.5%, 0)" stroke-width="0.4"></path><path d="M1896.78 232.12L2022.56 341.39" stroke="hsla(228.5, 77.2%, 51.5%, 0)" stroke-width="0.4"></path><path d="M1896.78 232.12L1760.05 352.22" stroke="hsla(228.5, 77.2%, 51.5%, 0)" stroke-width="0.4"></path><path d="M1889.95 493.15L1889.95 493.15" stroke="hsla(228.5, 77.2%, 51.5%, 0)" stroke-width="0.4"></path><path d="M2005.02 -57.59L2005.02 -57.59" stroke="hsla(228.5, 77.2%, 51.5%, 0)" stroke-width="0.4"></path><path d="M2005.02 -57.59L2052.83 75.56" stroke="hsla(228.5, 77.2%, 51.5%, 0)" stroke-width="0.4"></path><path d="M2005.02 -57.59L2150.86 -83.03" stroke="hsla(228.5, 77.2%, 51.5%, 0)" stroke-width="0.4"></path><path d="M2005.02 -57.59L1843.88 61.17" stroke="hsla(228.5, 77.2%, 51.5%, 0)" stroke-width="0.4"></path><path d="M2005.02 -57.59L2199.73 83.35" stroke="hsla(228.5, 77.2%, 51.5%, 0)" stroke-width="0.4"></path><path d="M2052.83 75.56L2052.83 75.56" stroke="hsla(228.5, 77.2%, 51.5%, 0)" stroke-width="0.4"></path><path d="M2052.83 75.56L2199.73 83.35" stroke="hsla(228.5, 77.2%, 51.5%, 0)" stroke-width="0.4"></path><path d="M2022.56 341.39L2022.56 341.39" stroke="hsla(228.5, 77.2%, 51.5%, 0)" stroke-width="0.4"></path><path d="M2022.56 341.39L2152.11 359.43" stroke="hsla(228.5, 77.2%, 51.5%, 0)" stroke-width="0.4"></path><path d="M2059.62 558.31L2059.62 558.31" stroke="hsla(228.5, 77.2%, 51.5%, 0)" stroke-width="0.4"></path><path d="M2059.62 558.31L2172.73 498.58" stroke="hsla(228.5, 77.2%, 51.5%, 0)" stroke-width="0.4"></path><path d="M2059.62 558.31L2058.09 696.71" stroke="hsla(228.5, 77.2%, 51.5%, 0)" stroke-width="0.4"></path><path d="M2059.62 558.31L2186.38 645.47" stroke="hsla(228.5, 77.2%, 51.5%, 0)" stroke-width="0.4"></path><path d="M2059.62 558.31L1889.95 493.15" stroke="hsla(228.5, 77.2%, 51.5%, 0)" stroke-width="0.4"></path><path d="M2058.09 696.71L2058.09 696.71" stroke="hsla(228.5, 77.2%, 51.5%, 0)" stroke-width="0.4"></path><path d="M2058.09 696.71L2186.38 645.47" stroke="hsla(228.5, 77.2%, 51.5%, 0)" stroke-width="0.4"></path><path d="M2058.09 696.71L1841.32 640.75" stroke="hsla(228.5, 77.2%, 51.5%, 0)" stroke-width="0.4"></path><path d="M2058.09 696.71L2172.73 498.58" stroke="hsla(228.5, 77.2%, 51.5%, 0)" stroke-width="0.4"></path><path d="M2058.09 696.71L1889.95 493.15" stroke="hsla(228.5, 77.2%, 51.5%, 0)" stroke-width="0.4"></path><path d="M2150.86 -83.03L2150.86 -83.03" stroke="hsla(228.5, 77.2%, 51.5%, 0)" stroke-width="0.4"></path><path d="M2150.86 -83.03L2199.73 83.35" stroke="hsla(228.5, 77.2%, 51.5%, 0)" stroke-width="0.4"></path><path d="M2150.86 -83.03L2052.83 75.56" stroke="hsla(228.5, 77.2%, 51.5%, 0)" stroke-width="0.4"></path><path d="M2199.73 83.35L2199.73 83.35" stroke="hsla(228.5, 77.2%, 51.5%, 0)" stroke-width="0.4"></path><path d="M2199.73 83.35L2193.68 190.49" stroke="hsla(228.5, 77.2%, 51.5%, 0)" stroke-width="0.4"></path><path d="M2199.73 83.35L2152.11 359.43" stroke="hsla(228.5, 77.2%, 51.5%, 0)" stroke-width="0.4"></path><path d="M2193.68 190.49L2193.68 190.49" stroke="hsla(228.5, 77.2%, 51.5%, 0)" stroke-width="0.4"></path><path d="M2193.68 190.49L2152.11 359.43" stroke="hsla(228.5, 77.2%, 51.5%, 0)" stroke-width="0.4"></path><path d="M2193.68 190.49L2052.83 75.56" stroke="hsla(228.5, 77.2%, 51.5%, 0)" stroke-width="0.4"></path><path d="M2193.68 190.49L2022.56 341.39" stroke="hsla(228.5, 77.2%, 51.5%, 0)" stroke-width="0.4"></path><path d="M2152.11 359.43L2152.11 359.43" stroke="hsla(228.5, 77.2%, 51.5%, 0)" stroke-width="0.4"></path><path d="M2152.11 359.43L2172.73 498.58" stroke="hsla(228.5, 77.2%, 51.5%, 0)" stroke-width="0.4"></path><path d="M2172.73 498.58L2172.73 498.58" stroke="hsla(228.5, 77.2%, 51.5%, 0)" stroke-width="0.4"></path><path d="M2186.38 645.47L2186.38 645.47" stroke="hsla(228.5, 77.2%, 51.5%, 0)" stroke-width="0.4"></path><path d="M2186.38 645.47L2172.73 498.58" stroke="hsla(228.5, 77.2%, 51.5%, 0)" stroke-width="0.4"></path></g><defs><mask id="SvgjsMask1010"><rect width="2000" height="500" fill="#ffffff"></rect></mask><radialGradient id="SvgjsRadialGradient1011"><stop stop-color="#ffffff" offset="0.1"></stop><stop stop-color="rgba(23, 53, 179, 0)" offset="0.2"></stop><stop stop-color="rgba(23, 53, 179, 0)" offset="1"></stop></radialGradient></defs></svg>